<mxfile host="app.diagrams.net" modified="2022-05-31T13:42:55.251Z" agent="5.0 (Windows NT 10.0; Win64; x64) AppleWebKit/537.36 (KHTML, like Gecko) Chrome/101.0.4951.67 Safari/537.36" etag="8DCO3OUJJb2EUjdo5RXz" version="18.1.3" type="github">
  <diagram id="OaxhIE-Q87gZ6cyR5LAC" name="Page-1">
    <mxGraphModel dx="331" dy="177" grid="1" gridSize="10" guides="1" tooltips="1" connect="1" arrows="1" fold="1" page="1" pageScale="1" pageWidth="850" pageHeight="1100" math="0" shadow="0">
      <root>
        <mxCell id="0" />
        <mxCell id="1" parent="0" />
        <mxCell id="pzSt6tAUdHUx4kiziMoA-40" value="" style="outlineConnect=0;dashed=0;verticalLabelPosition=bottom;verticalAlign=top;align=center;html=1;shape=mxgraph.aws3.internet_2;fillColor=#D2D3D3;gradientColor=none;" parent="1" vertex="1">
          <mxGeometry x="20" y="220" width="79.5" height="54" as="geometry" />
        </mxCell>
        <mxCell id="pzSt6tAUdHUx4kiziMoA-69" value="" style="edgeStyle=orthogonalEdgeStyle;rounded=0;orthogonalLoop=1;jettySize=auto;html=1;endArrow=block;endFill=1;" parent="1" source="pzSt6tAUdHUx4kiziMoA-46" target="pzSt6tAUdHUx4kiziMoA-47" edge="1">
          <mxGeometry relative="1" as="geometry">
            <Array as="points">
              <mxPoint x="200" y="259" />
              <mxPoint x="200" y="259" />
            </Array>
            <mxPoint x="200" y="258" as="sourcePoint" />
          </mxGeometry>
        </mxCell>
        <mxCell id="pzSt6tAUdHUx4kiziMoA-46" value="" style="outlineConnect=0;dashed=0;verticalLabelPosition=bottom;verticalAlign=top;align=center;html=1;shape=mxgraph.aws3.internet_gateway;fillColor=#F58536;gradientColor=none;" parent="1" vertex="1">
          <mxGeometry x="150" y="235" width="40" height="40" as="geometry" />
        </mxCell>
        <mxCell id="pzSt6tAUdHUx4kiziMoA-70" value="" style="edgeStyle=orthogonalEdgeStyle;rounded=0;orthogonalLoop=1;jettySize=auto;html=1;endArrow=block;endFill=1;" parent="1" source="pzSt6tAUdHUx4kiziMoA-47" target="pzSt6tAUdHUx4kiziMoA-48" edge="1">
          <mxGeometry relative="1" as="geometry">
            <Array as="points">
              <mxPoint x="375" y="170" />
            </Array>
          </mxGeometry>
        </mxCell>
        <mxCell id="pzSt6tAUdHUx4kiziMoA-71" value="" style="edgeStyle=orthogonalEdgeStyle;rounded=0;orthogonalLoop=1;jettySize=auto;html=1;endArrow=block;endFill=1;" parent="1" source="pzSt6tAUdHUx4kiziMoA-47" target="pzSt6tAUdHUx4kiziMoA-49" edge="1">
          <mxGeometry relative="1" as="geometry">
            <Array as="points">
              <mxPoint x="375" y="350" />
            </Array>
          </mxGeometry>
        </mxCell>
        <mxCell id="pzSt6tAUdHUx4kiziMoA-47" value="" style="aspect=fixed;perimeter=ellipsePerimeter;html=1;align=center;shadow=0;dashed=0;spacingTop=3;image;image=img/lib/active_directory/router.svg;" parent="1" vertex="1">
          <mxGeometry x="240" y="240" width="50" height="38" as="geometry" />
        </mxCell>
        <mxCell id="pzSt6tAUdHUx4kiziMoA-74" value="" style="edgeStyle=orthogonalEdgeStyle;rounded=0;orthogonalLoop=1;jettySize=auto;html=1;endArrow=block;endFill=1;" parent="1" source="pzSt6tAUdHUx4kiziMoA-48" edge="1">
          <mxGeometry relative="1" as="geometry">
            <mxPoint x="500" y="175" as="targetPoint" />
          </mxGeometry>
        </mxCell>
        <mxCell id="pzSt6tAUdHUx4kiziMoA-48" value="" style="outlineConnect=0;dashed=0;verticalLabelPosition=bottom;verticalAlign=top;align=center;html=1;shape=mxgraph.aws3.route_table;fillColor=#F58536;gradientColor=none;" parent="1" vertex="1">
          <mxGeometry x="400" y="140" width="75" height="69" as="geometry" />
        </mxCell>
        <mxCell id="pzSt6tAUdHUx4kiziMoA-76" value="" style="edgeStyle=orthogonalEdgeStyle;rounded=0;orthogonalLoop=1;jettySize=auto;html=1;endArrow=block;endFill=1;entryX=0;entryY=0.5;entryDx=0;entryDy=0;entryPerimeter=0;" parent="1" source="pzSt6tAUdHUx4kiziMoA-49" target="pzSt6tAUdHUx4kiziMoA-51" edge="1">
          <mxGeometry relative="1" as="geometry" />
        </mxCell>
        <mxCell id="pzSt6tAUdHUx4kiziMoA-49" value="" style="sketch=0;outlineConnect=0;fontColor=#232F3E;gradientColor=none;fillColor=#4D27AA;strokeColor=none;dashed=0;verticalLabelPosition=bottom;verticalAlign=top;align=center;html=1;fontSize=12;fontStyle=0;aspect=fixed;pointerEvents=1;shape=mxgraph.aws4.route_table;" parent="1" vertex="1">
          <mxGeometry x="398.5" y="310" width="78" height="76" as="geometry" />
        </mxCell>
        <mxCell id="pzSt6tAUdHUx4kiziMoA-79" value="" style="edgeStyle=orthogonalEdgeStyle;rounded=0;orthogonalLoop=1;jettySize=auto;html=1;endArrow=block;endFill=1;entryX=-0.003;entryY=0.231;entryDx=0;entryDy=0;entryPerimeter=0;" parent="1" source="pzSt6tAUdHUx4kiziMoA-50" target="pzSt6tAUdHUx4kiziMoA-54" edge="1">
          <mxGeometry relative="1" as="geometry" />
        </mxCell>
        <mxCell id="pzSt6tAUdHUx4kiziMoA-50" value="" style="outlineConnect=0;dashed=0;verticalLabelPosition=bottom;verticalAlign=top;align=center;html=1;shape=mxgraph.aws3.network_access_controllist;fillColor=#F58534;gradientColor=none;" parent="1" vertex="1">
          <mxGeometry x="500" y="153.5" width="40" height="42" as="geometry" />
        </mxCell>
        <mxCell id="pzSt6tAUdHUx4kiziMoA-80" value="" style="edgeStyle=orthogonalEdgeStyle;rounded=0;orthogonalLoop=1;jettySize=auto;html=1;endArrow=block;endFill=1;" parent="1" source="pzSt6tAUdHUx4kiziMoA-51" edge="1">
          <mxGeometry relative="1" as="geometry">
            <mxPoint x="560" y="348" as="targetPoint" />
            <Array as="points">
              <mxPoint x="560" y="348" />
              <mxPoint x="560" y="348" />
            </Array>
          </mxGeometry>
        </mxCell>
        <mxCell id="pzSt6tAUdHUx4kiziMoA-51" value="" style="outlineConnect=0;dashed=0;verticalLabelPosition=bottom;verticalAlign=top;align=center;html=1;shape=mxgraph.aws3.network_access_controllist;fillColor=#F58534;gradientColor=none;" parent="1" vertex="1">
          <mxGeometry x="500" y="327" width="40" height="42" as="geometry" />
        </mxCell>
        <mxCell id="pzSt6tAUdHUx4kiziMoA-52" value="Public subnet" style="points=[[0,0],[0.25,0],[0.5,0],[0.75,0],[1,0],[1,0.25],[1,0.5],[1,0.75],[1,1],[0.75,1],[0.5,1],[0.25,1],[0,1],[0,0.75],[0,0.5],[0,0.25]];outlineConnect=0;gradientColor=none;html=1;whiteSpace=wrap;fontSize=12;fontStyle=0;container=1;pointerEvents=0;collapsible=0;recursiveResize=0;shape=mxgraph.aws4.group;grIcon=mxgraph.aws4.group_security_group;grStroke=0;strokeColor=#248814;fillColor=#E9F3E6;verticalAlign=top;align=left;spacingLeft=30;fontColor=#248814;dashed=0;" parent="1" vertex="1">
          <mxGeometry x="560" y="113.5" width="190" height="120.5" as="geometry" />
        </mxCell>
        <mxCell id="pzSt6tAUdHUx4kiziMoA-56" value="" style="outlineConnect=0;dashed=0;verticalLabelPosition=bottom;verticalAlign=top;align=center;html=1;shape=mxgraph.aws3.instance;fillColor=#F58534;gradientColor=none;" parent="pzSt6tAUdHUx4kiziMoA-52" vertex="1">
          <mxGeometry x="120" y="13" width="60" height="87" as="geometry" />
        </mxCell>
        <mxCell id="pzSt6tAUdHUx4kiziMoA-54" value="Security group" style="fillColor=none;strokeColor=#DD3522;verticalAlign=top;fontStyle=0;fontColor=#DD3522;" parent="pzSt6tAUdHUx4kiziMoA-52" vertex="1">
          <mxGeometry x="10" y="26.5" width="100" height="85" as="geometry" />
        </mxCell>
        <mxCell id="pzSt6tAUdHUx4kiziMoA-53" value="Private subnet" style="points=[[0,0],[0.25,0],[0.5,0],[0.75,0],[1,0],[1,0.25],[1,0.5],[1,0.75],[1,1],[0.75,1],[0.5,1],[0.25,1],[0,1],[0,0.75],[0,0.5],[0,0.25]];outlineConnect=0;gradientColor=none;html=1;whiteSpace=wrap;fontSize=12;fontStyle=0;container=1;pointerEvents=0;collapsible=0;recursiveResize=0;shape=mxgraph.aws4.group;grIcon=mxgraph.aws4.group_security_group;grStroke=0;strokeColor=#147EBA;fillColor=#E6F2F8;verticalAlign=top;align=left;spacingLeft=30;fontColor=#147EBA;dashed=0;" parent="1" vertex="1">
          <mxGeometry x="560" y="288" width="200" height="120" as="geometry" />
        </mxCell>
        <mxCell id="pzSt6tAUdHUx4kiziMoA-55" value="Security group" style="fillColor=none;strokeColor=#DD3522;verticalAlign=top;fontStyle=0;fontColor=#DD3522;" parent="pzSt6tAUdHUx4kiziMoA-53" vertex="1">
          <mxGeometry x="10" y="26.5" width="100" height="83.5" as="geometry" />
        </mxCell>
        <mxCell id="pzSt6tAUdHUx4kiziMoA-59" value="" style="outlineConnect=0;dashed=0;verticalLabelPosition=bottom;verticalAlign=top;align=center;html=1;shape=mxgraph.aws3.instance;fillColor=#F58534;gradientColor=none;" parent="pzSt6tAUdHUx4kiziMoA-53" vertex="1">
          <mxGeometry x="130" y="23" width="60" height="87" as="geometry" />
        </mxCell>
        <mxCell id="pzSt6tAUdHUx4kiziMoA-63" value="" style="endArrow=classic;startArrow=classic;html=1;rounded=0;" parent="1" edge="1">
          <mxGeometry width="50" height="50" relative="1" as="geometry">
            <mxPoint x="100" y="260" as="sourcePoint" />
            <mxPoint x="150" y="260" as="targetPoint" />
            <Array as="points" />
          </mxGeometry>
        </mxCell>
        <object label="" id="pzSt6tAUdHUx4kiziMoA-82">
          <mxCell style="rounded=1;arcSize=10;dashed=1;strokeColor=#F59D56;fillColor=none;gradientColor=none;dashPattern=8 4;strokeWidth=2;" parent="1" vertex="1">
            <mxGeometry x="290" y="288" width="500" height="169.5" as="geometry" />
          </mxCell>
        </object>
        <mxCell id="UaW0zsgc5Sa8PaZ4bMCv-1" value="" style="sketch=0;outlineConnect=0;fontColor=#232F3E;gradientColor=none;fillColor=#D45B07;strokeColor=none;dashed=0;verticalLabelPosition=bottom;verticalAlign=top;align=center;html=1;fontSize=12;fontStyle=0;aspect=fixed;pointerEvents=1;shape=mxgraph.aws4.auto_scaling2;" vertex="1" parent="1">
          <mxGeometry x="352" y="235" width="48" height="48" as="geometry" />
        </mxCell>
        <mxCell id="pzSt6tAUdHUx4kiziMoA-83" value="" style="rounded=1;arcSize=10;dashed=1;strokeColor=#F59D56;fillColor=none;gradientColor=none;dashPattern=8 4;strokeWidth=2;" parent="1" vertex="1">
          <mxGeometry x="290" y="70" width="500" height="164" as="geometry" />
        </mxCell>
        <mxCell id="UaW0zsgc5Sa8PaZ4bMCv-2" value="&lt;font color=&quot;#ff4a26&quot;&gt;Infrastructure Diagram&lt;/font&gt;" style="text;strokeColor=none;fillColor=none;html=1;fontSize=24;fontStyle=1;verticalAlign=middle;align=center;" vertex="1" parent="1">
          <mxGeometry x="296.75" y="40" width="281.5" height="30" as="geometry" />
        </mxCell>
        <mxCell id="UaW0zsgc5Sa8PaZ4bMCv-3" value="&lt;font color=&quot;#000000&quot; style=&quot;font-size: 10px;&quot; face=&quot;Verdana&quot;&gt;Internet&lt;/font&gt;" style="text;html=1;strokeColor=none;fillColor=none;align=center;verticalAlign=middle;whiteSpace=wrap;rounded=0;fontColor=#FF4A26;" vertex="1" parent="1">
          <mxGeometry x="29.75" y="190" width="60" height="30" as="geometry" />
        </mxCell>
        <mxCell id="UaW0zsgc5Sa8PaZ4bMCv-5" value="VPC" style="sketch=0;outlineConnect=0;gradientColor=none;html=1;whiteSpace=wrap;fontSize=12;fontStyle=0;shape=mxgraph.aws4.group;grIcon=mxgraph.aws4.group_vpc;strokeColor=#879196;fillColor=none;verticalAlign=top;align=left;spacingLeft=30;fontColor=#879196;dashed=0;fontFamily=Verdana;" vertex="1" parent="1">
          <mxGeometry x="320" y="79" width="460" height="360" as="geometry" />
        </mxCell>
        <mxCell id="UaW0zsgc5Sa8PaZ4bMCv-6" value="&lt;font color=&quot;#000000&quot; style=&quot;font-size: 10px;&quot; face=&quot;Verdana&quot;&gt;Internet Gateway&lt;/font&gt;" style="text;html=1;strokeColor=none;fillColor=none;align=center;verticalAlign=middle;whiteSpace=wrap;rounded=0;fontColor=#FF4A26;" vertex="1" parent="1">
          <mxGeometry x="140" y="195.5" width="60" height="30" as="geometry" />
        </mxCell>
        <mxCell id="UaW0zsgc5Sa8PaZ4bMCv-7" value="&lt;font color=&quot;#000000&quot; style=&quot;font-size: 10px;&quot; face=&quot;Verdana&quot;&gt;Route Table&lt;/font&gt;" style="text;html=1;strokeColor=none;fillColor=none;align=center;verticalAlign=middle;whiteSpace=wrap;rounded=0;fontColor=#FF4A26;" vertex="1" parent="1">
          <mxGeometry x="230" y="195.5" width="60" height="30" as="geometry" />
        </mxCell>
        <mxCell id="UaW0zsgc5Sa8PaZ4bMCv-8" value="&lt;font color=&quot;#000000&quot; style=&quot;font-size: 10px;&quot; face=&quot;Verdana&quot;&gt;Auto Scaling Group&lt;/font&gt;" style="text;html=1;strokeColor=none;fillColor=none;align=center;verticalAlign=middle;whiteSpace=wrap;rounded=0;fontColor=#FF4A26;" vertex="1" parent="1">
          <mxGeometry x="400" y="244" width="60" height="30" as="geometry" />
        </mxCell>
      </root>
    </mxGraphModel>
  </diagram>
</mxfile>
